<mxfile host="app.diagrams.net" modified="2024-05-28T06:19:01.007Z" agent="Mozilla/5.0 (Windows NT 10.0; Win64; x64) AppleWebKit/537.36 (KHTML, like Gecko) Chrome/123.0.0.0 Safari/537.36" version="24.4.9" etag="7ug4N0cb9k5Uxz3RBbeM" type="github">
  <diagram name="第 1 页" id="fF-14K-XJmWsuf5h0oPD">
    <mxGraphModel>
      <root>
        <mxCell id="0" />
        <mxCell id="1" parent="0" />
      </root>
    </mxGraphModel>
  </diagram>
</mxfile>
